<?xml version="1.0" encoding="UTF-8" standalone="no" ?>
<!DOCTYPE svg PUBLIC "-//W3C//DTD SVG 1.1//EN" "http://www.w3.org/Graphics/SVG/1.1/DTD/svg11.dtd">
<svg xmlns="http://www.w3.org/2000/svg" xmlns:xlink="http://www.w3.org/1999/xlink" version="1.1" width="1080" height="1080" viewBox="0 0 1080 1080" xml:space="preserve">
<desc>Created with Fabric.js 5.2.4</desc>
<defs>
</defs>
<g transform="matrix(1 0 0 1 540 540)" id="45192ff6-7574-4161-926e-6d0e48f53520"  >
<rect style="stroke: none; stroke-width: 1; stroke-dasharray: none; stroke-linecap: butt; stroke-dashoffset: 0; stroke-linejoin: miter; stroke-miterlimit: 4; fill: rgb(255,255,255); fill-rule: nonzero; opacity: 1; visibility: hidden;" vector-effect="non-scaling-stroke"  x="-540" y="-540" rx="0" ry="0" width="1080" height="1080" />
</g>
<g transform="matrix(1 0 0 1 540 540)" id="36a04020-eb84-4039-9ec7-fb3d3111e702"  >
</g>
<g transform="matrix(1.37 0 0 1.37 634.13 540)" style="" id="ba5623ab-ab7c-4784-962b-d61309c7082e"  >
		<text xml:space="preserve" font-family="Raleway" font-size="105" font-style="normal" font-weight="900" style="stroke: none; stroke-width: 1; stroke-dasharray: none; stroke-linecap: butt; stroke-dashoffset: 0; stroke-linejoin: miter; stroke-miterlimit: 4; fill: rgb(255,255,255); fill-rule: nonzero; opacity: 1; white-space: pre;" ><tspan x="-280.3" y="32.98" >Nexoncure</tspan></text>
</g>
<g transform="matrix(6.59 0 0 6.59 125.12 533.41)"  >
<rect style="stroke: none; stroke-width: 1; stroke-dasharray: none; stroke-linecap: butt; stroke-dashoffset: 0; stroke-linejoin: miter; stroke-miterlimit: 4; fill: rgb(255,255,255); fill-rule: nonzero; opacity: 1;" vector-effect="non-scaling-stroke"  x="-15.9" y="-15.9" rx="7.9" ry="7.9" width="31.8" height="31.8" />
</g>
<g transform="matrix(6.59 0 0 6.59 125.12 533.41)"  >
<linearGradient id="SVGID_paint0_linear_4155_249_3" gradientUnits="userSpaceOnUse" gradientTransform="matrix(1 0 0 1 -19 -18)"  x1="19" y1="2" x2="19" y2="34">
<stop offset="0%" style="stop-color:rgb(255,255,255);stop-opacity: 1"/>
<stop offset="100%" style="stop-color:rgb(208,213,221);stop-opacity: 1"/>
</linearGradient>
<rect style="stroke: none; stroke-width: 1; stroke-dasharray: none; stroke-linecap: butt; stroke-dashoffset: 0; stroke-linejoin: miter; stroke-miterlimit: 4; fill: url(#SVGID_paint0_linear_4155_249_3); fill-rule: nonzero; opacity: 1;" vector-effect="non-scaling-stroke"  x="-15.9" y="-15.9" rx="7.9" ry="7.9" width="31.8" height="31.8" />
</g>
<g transform="matrix(6.59 0 0 6.59 125.12 533.41)"  >
<rect style="stroke: rgb(208,213,221); stroke-width: 0.2; stroke-dasharray: none; stroke-linecap: butt; stroke-dashoffset: 0; stroke-linejoin: miter; stroke-miterlimit: 4; fill: none; fill-rule: nonzero; opacity: 1;" vector-effect="non-scaling-stroke"  x="-15.9" y="-15.9" rx="7.9" ry="7.9" width="31.8" height="31.8" />
</g>
<g transform="matrix(6.59 0 0 6.59 125.12 534.04)"  >
<linearGradient id="SVGID_paint1_linear_4155_249_4" gradientUnits="userSpaceOnUse" gradientTransform="matrix(1 0 0 1 0 0)"  x1="10.1989" y1="24.2137" x2="27.8347" y2="6.57788">
<stop offset="0%" style="stop-color:rgb(0,118,193);stop-opacity: 1"/>
<stop offset="7.37%" style="stop-color:rgb(11,130,198);stop-opacity: 1"/>
<stop offset="27.66%" style="stop-color:rgb(38,158,211);stop-opacity: 1"/>
<stop offset="45.46%" style="stop-color:rgb(54,175,218);stop-opacity: 1"/>
<stop offset="58.699999999999996%" style="stop-color:rgb(60,181,221);stop-opacity: 1"/>
</linearGradient>
<path style="stroke: none; stroke-width: 1; stroke-dasharray: none; stroke-linecap: butt; stroke-dashoffset: 0; stroke-linejoin: miter; stroke-miterlimit: 4; fill: url(#SVGID_paint1_linear_4155_249_4); fill-rule: nonzero; opacity: 1;" vector-effect="non-scaling-stroke"  transform=" translate(-19, -18.09)" d="M 18.3546 13.1827 C 22.7105 11.4503 27.4742 12.8184 29.6373 14.9132 C 30.106 15.3671 30.5041 15.8275 30.845 16.2851 C 31.0394 15.2107 31.0552 14.1405 30.8681 13.1055 C 30.1847 9.32646 26.6195 7.18558 23.4233 8.29146 C 20.2415 9.39237 19.0005 11.5321 19.0005 11.5321 C 19.0005 11.5321 17.7595 9.39237 14.5777 8.29146 C 11.3812 7.18558 7.81603 9.32669 7.1328 13.1055 C 6.62842 15.8944 7.58356 18.9391 9.61033 21.6298 C 10.0372 21.7732 10.4847 21.8809 10.9586 21.943 C 13.7978 22.3163 14.8184 21.557 16.0178 21.0486 C 16.8142 20.7112 17.4134 21.0942 17.3843 21.3626 C 17.3392 21.7786 15.7693 22.4895 16.106 22.6388 C 17.4351 23.2284 19.0718 23.2334 20.3053 22.18 C 21.838 20.8712 22.4114 21.7658 22.4114 21.7658 C 22.4114 21.7658 21.6502 23.7076 19.3581 24.6717 C 17.4457 25.4761 15.4419 25.6743 13.6107 25.4683 C 15.19 26.5846 17.0035 27.5204 19.0005 28.1882 C 24.7099 26.2784 28.9276 22.1871 30.4145 17.9096 C 29.4072 16.9157 28.1716 16.2995 26.6988 16.0763 C 23.8674 15.647 22.8322 16.3862 21.6228 16.8708 C 20.8198 17.1926 20.2285 16.7978 20.263 16.5299 C 20.3161 16.1148 21.8999 15.4351 21.5661 15.279 C 20.249 14.6633 18.6125 14.626 17.3585 15.6548 C 15.8003 16.9332 15.2446 16.0274 15.2446 16.0274 C 15.2446 16.0274 16.0438 14.1015 18.3546 13.1827 Z M 17.2709 18.5051 L 18.3709 18.5051 L 18.3709 17.4052 L 19.6296 17.4052 L 19.6296 18.5051 L 20.7296 18.5051 L 20.7296 19.7639 L 19.6296 19.7639 L 19.6296 20.8638 L 18.3709 20.8638 L 18.3709 19.7639 L 17.2709 19.7639 L 17.2709 18.5051 Z" stroke-linecap="round" />
</g>
<g transform="matrix(6.59 0 0 6.59 132.85 514.79)"  >
<linearGradient id="SVGID_paint2_linear_4155_249_5" gradientUnits="userSpaceOnUse" gradientTransform="matrix(1 0 0 1 0 0)"  x1="10.1388" y1="24.2537" x2="27.8274" y2="6.56509">
<stop offset="0%" style="stop-color:rgb(0,164,130);stop-opacity: 1"/>
<stop offset="100%" style="stop-color:rgb(121,221,131);stop-opacity: 1"/>
</linearGradient>
<path style="stroke: none; stroke-width: 1; stroke-dasharray: none; stroke-linecap: butt; stroke-dashoffset: 0; stroke-linejoin: miter; stroke-miterlimit: 4; fill: url(#SVGID_paint2_linear_4155_249_5); fill-rule: nonzero; opacity: 1;" vector-effect="non-scaling-stroke"  transform=" translate(-20.17, -15.17)" d="M 17.2709 18.5052 L 18.3709 18.5052 L 18.3709 17.4052 L 19.6296 17.4052 L 19.6296 18.5052 L 20.7295 18.5052 L 20.7295 19.7639 L 19.6378 19.7639 C 21.2597 20.5834 24.2383 21.8027 27.8177 22.3451 C 28.9956 20.9517 29.8813 19.4428 30.4143 17.9096 C 29.4069 16.9157 28.1713 16.2996 26.6986 16.0763 C 23.8672 15.647 22.8319 16.3863 21.6226 16.8708 C 20.8196 17.1926 20.2282 16.7978 20.2627 16.5299 C 20.3159 16.1148 21.8997 15.4351 21.5659 15.279 C 20.2488 14.6633 18.6123 14.626 17.3583 15.6548 C 15.8 16.9332 15.2443 16.0274 15.2443 16.0274 C 15.2443 16.0274 16.0438 14.1013 18.3543 13.1823 C 22.7102 11.4499 27.4739 12.818 29.637 14.9128 C 30.1057 15.3666 30.5038 15.8271 30.8447 16.2847 C 31.0392 15.2102 31.055 14.14 30.8679 13.105 C 30.1844 9.326 26.6192 7.18512 23.423 8.291 C 20.2412 9.39191 19.0002 11.5316 19.0002 11.5316 C 19.0002 11.5316 17.7592 9.39191 14.5774 8.291 C 12.7519 7.65927 10.8067 8.0883 9.34619 9.27521 C 10.0323 10.7442 10.836 12.1168 13.1254 14.8773 C 14.9868 17.1222 17.2709 18.5052 17.2709 18.5052 Z" stroke-linecap="round" />
</g>
<g transform="matrix(6.59 0 0 6.59 166.25 493.29)"  >
<linearGradient id="SVGID_paint3_linear_4155_249_6" gradientUnits="userSpaceOnUse" gradientTransform="matrix(1 0 0 1 0 0)"  x1="24.8608" y1="13.5072" x2="28.5288" y2="10.1131">
<stop offset="0%" style="stop-color:rgb(0,164,130);stop-opacity: 1"/>
<stop offset="100%" style="stop-color:rgb(121,221,131);stop-opacity: 1"/>
</linearGradient>
<path style="stroke: none; stroke-width: 1; stroke-dasharray: none; stroke-linecap: butt; stroke-dashoffset: 0; stroke-linejoin: miter; stroke-miterlimit: 4; fill: url(#SVGID_paint3_linear_4155_249_6); fill-rule: nonzero; opacity: 0.31;" vector-effect="non-scaling-stroke"  transform=" translate(-25.25, -11.91)" d="M 27.277 9.64942 C 24.2712 8.13932 21.169 10.489 20.1851 11.7298 C 21.882 11.3724 23.3668 11.189 25.2457 11.5838 C 28.0252 12.1678 29.0654 13.1714 30.3064 14.6541 C 30.0871 11.9068 28.3519 10.1895 27.277 9.64942 Z" stroke-linecap="round" />
</g>
<g transform="matrix(6.59 0 0 6.59 -472.25 329.36)"  >
<path style="stroke: none; stroke-width: 1; stroke-dasharray: none; stroke-linecap: butt; stroke-dashoffset: 0; stroke-linejoin: miter; stroke-miterlimit: 4; fill: rgb(255,255,255); fill-rule: nonzero; opacity: 1;" vector-effect="non-scaling-stroke"  transform=" translate(-104.54, -19.06)" d="M 55.128 28.288 C 53.848 28.288 52.664 28.056 51.576 27.592 C 50.504 27.128 49.56 26.48 48.744 25.648 C 47.944 24.816 47.32 23.84 46.872 22.72 C 46.424 21.6 46.2 20.376 46.2 19.048 C 46.2 17.72 46.416 16.496 46.848 15.376 C 47.296 14.24 47.92 13.264 48.72 12.448 C 49.536 11.616 50.488 10.976 51.576 10.528 C 52.664 10.064 53.848 9.832 55.128 9.832 C 56.408 9.832 57.552 10.048 58.56 10.48 C 59.584 10.912 60.448 11.488 61.152 12.208 C 61.856 12.912 62.36 13.688 62.664 14.536 L 59.736 15.904 C 59.4 15.008 58.832 14.272 58.032 13.696 C 57.232 13.104 56.264 12.808 55.128 12.808 C 54.008 12.808 53.016 13.072 52.152 13.6 C 51.304 14.128 50.64 14.856 50.16 15.784 C 49.696 16.712 49.464 17.8 49.464 19.048 C 49.464 20.296 49.696 21.392 50.16 22.336 C 50.64 23.264 51.304 23.992 52.152 24.52 C 53.016 25.048 54.008 25.312 55.128 25.312 C 56.264 25.312 57.232 25.024 58.032 24.448 C 58.832 23.856 59.4 23.112 59.736 22.216 L 62.664 23.584 C 62.36 24.432 61.856 25.216 61.152 25.936 C 60.448 26.64 59.584 27.208 58.56 27.64 C 57.552 28.072 56.408 28.288 55.128 28.288 Z M 68.7756 28.288 C 67.8636 28.288 67.0716 28.136 66.3996 27.832 C 65.7276 27.528 65.2076 27.096 64.8396 26.536 C 64.4716 25.96 64.2876 25.296 64.2876 24.544 C 64.2876 23.824 64.4476 23.184 64.7676 22.624 C 65.0876 22.048 65.5836 21.568 66.2556 21.184 C 66.9276 20.8 67.7756 20.528 68.7996 20.368 L 73.0716 19.672 L 73.0716 22.072 L 69.3996 22.696 C 68.7756 22.808 68.3116 23.008 68.0076 23.296 C 67.7036 23.584 67.5516 23.96 67.5516 24.424 C 67.5516 24.872 67.7196 25.232 68.0556 25.504 C 68.4076 25.76 68.8396 25.888 69.3516 25.888 C 70.0076 25.888 70.5836 25.752 71.0796 25.48 C 71.5916 25.192 71.9836 24.8 72.2556 24.304 C 72.5436 23.808 72.6876 23.264 72.6876 22.672 L 72.6876 19.312 C 72.6876 18.752 72.4636 18.288 72.0156 17.92 C 71.5836 17.536 71.0076 17.344 70.2876 17.344 C 69.6156 17.344 69.0156 17.528 68.4876 17.896 C 67.9756 18.248 67.5996 18.72 67.3596 19.312 L 64.7916 18.064 C 65.0476 17.376 65.4476 16.784 65.9916 16.288 C 66.5516 15.776 67.2076 15.376 67.9596 15.088 C 68.7116 14.8 69.5276 14.656 70.4076 14.656 C 71.4796 14.656 72.4236 14.856 73.2396 15.256 C 74.0556 15.64 74.6876 16.184 75.1356 16.888 C 75.5996 17.576 75.8316 18.384 75.8316 19.312 L 75.8316 28 L 72.8556 28 L 72.8556 25.768 L 73.5276 25.72 C 73.1916 26.28 72.7916 26.752 72.3276 27.136 C 71.8636 27.504 71.3356 27.792 70.7436 28 C 70.1516 28.192 69.4956 28.288 68.7756 28.288 Z M 78.7374 28 L 78.7374 14.944 L 81.6894 14.944 L 81.6894 17.848 L 81.4494 17.416 C 81.7534 16.44 82.2254 15.76 82.8654 15.376 C 83.5214 14.992 84.3054 14.8 85.2174 14.8 L 85.9854 14.8 L 85.9854 17.584 L 84.8574 17.584 C 83.9614 17.584 83.2414 17.864 82.6974 18.424 C 82.1534 18.968 81.8814 19.736 81.8814 20.728 L 81.8814 28 L 78.7374 28 Z M 93.906 28.288 C 92.562 28.288 91.386 27.984 90.378 27.376 C 89.37 26.768 88.586 25.944 88.026 24.904 C 87.466 23.864 87.186 22.712 87.186 21.448 C 87.186 20.136 87.466 18.976 88.026 17.968 C 88.602 16.944 89.378 16.136 90.354 15.544 C 91.346 14.952 92.45 14.656 93.666 14.656 C 94.69 14.656 95.586 14.824 96.354 15.16 C 97.138 15.496 97.802 15.96 98.346 16.552 C 98.89 17.144 99.306 17.824 99.594 18.592 C 99.882 19.344 100.026 20.16 100.026 21.04 C 100.026 21.264 100.01 21.496 99.978 21.736 C 99.962 21.976 99.922 22.184 99.858 22.36 L 89.778 22.36 L 89.778 19.96 L 98.082 19.96 L 96.594 21.088 C 96.738 20.352 96.698 19.696 96.474 19.12 C 96.266 18.544 95.914 18.088 95.418 17.752 C 94.938 17.416 94.354 17.248 93.666 17.248 C 93.01 17.248 92.426 17.416 91.914 17.752 C 91.402 18.072 91.01 18.552 90.738 19.192 C 90.482 19.816 90.386 20.576 90.45 21.472 C 90.386 22.272 90.49 22.984 90.762 23.608 C 91.05 24.216 91.466 24.688 92.01 25.024 C 92.57 25.36 93.21 25.528 93.93 25.528 C 94.65 25.528 95.258 25.376 95.754 25.072 C 96.266 24.768 96.666 24.36 96.954 23.848 L 99.498 25.096 C 99.242 25.72 98.842 26.272 98.298 26.752 C 97.754 27.232 97.106 27.608 96.354 27.88 C 95.618 28.152 94.802 28.288 93.906 28.288 Z M 102.673 28 L 102.673 10.12 L 109.345 10.12 C 110.561 10.12 111.633 10.344 112.561 10.792 C 113.505 11.224 114.241 11.864 114.769 12.712 C 115.297 13.544 115.561 14.56 115.561 15.76 C 115.561 16.944 115.289 17.96 114.745 18.808 C 114.217 19.64 113.489 20.28 112.561 20.728 C 111.633 21.176 110.561 21.4 109.345 21.4 L 105.937 21.4 L 105.937 28 L 102.673 28 Z M 105.937 18.52 L 109.393 18.52 C 109.985 18.52 110.497 18.408 110.929 18.184 C 111.361 17.944 111.697 17.616 111.937 17.2 C 112.177 16.784 112.297 16.304 112.297 15.76 C 112.297 15.2 112.177 14.72 111.937 14.32 C 111.697 13.904 111.361 13.584 110.929 13.36 C 110.497 13.12 109.985 13 109.393 13 L 105.937 13 L 105.937 18.52 Z M 122.628 28.288 C 121.62 28.288 120.74 28.064 119.988 27.616 C 119.252 27.168 118.684 26.544 118.284 25.744 C 117.9 24.944 117.708 24.008 117.708 22.936 L 117.708 14.944 L 120.852 14.944 L 120.852 22.672 C 120.852 23.216 120.956 23.696 121.164 24.112 C 121.388 24.512 121.7 24.832 122.1 25.072 C 122.516 25.296 122.98 25.408 123.492 25.408 C 124.004 25.408 124.46 25.296 124.86 25.072 C 125.26 24.832 125.572 24.504 125.796 24.088 C 126.02 23.672 126.132 23.176 126.132 22.6 L 126.132 14.944 L 129.276 14.944 L 129.276 28 L 126.3 28 L 126.3 25.432 L 126.564 25.888 C 126.26 26.688 125.756 27.288 125.052 27.688 C 124.364 28.088 123.556 28.288 122.628 28.288 Z M 132.198 28 L 132.198 9.832 L 135.342 9.832 L 135.342 28 L 132.198 28 Z M 143.213 28.288 C 141.821 28.288 140.605 27.96 139.565 27.304 C 138.541 26.632 137.837 25.728 137.453 24.592 L 139.805 23.464 C 140.141 24.2 140.605 24.776 141.197 25.192 C 141.805 25.608 142.477 25.816 143.213 25.816 C 143.789 25.816 144.245 25.688 144.581 25.432 C 144.917 25.176 145.085 24.84 145.085 24.424 C 145.085 24.168 145.013 23.96 144.869 23.8 C 144.741 23.624 144.557 23.48 144.317 23.368 C 144.093 23.24 143.845 23.136 143.573 23.056 L 141.437 22.456 C 140.333 22.136 139.493 21.648 138.917 20.992 C 138.357 20.336 138.077 19.56 138.077 18.664 C 138.077 17.864 138.277 17.168 138.677 16.576 C 139.093 15.968 139.661 15.496 140.381 15.16 C 141.117 14.824 141.957 14.656 142.901 14.656 C 144.133 14.656 145.221 14.952 146.165 15.544 C 147.109 16.136 147.781 16.968 148.181 18.04 L 145.781 19.168 C 145.557 18.576 145.181 18.104 144.653 17.752 C 144.125 17.4 143.533 17.224 142.877 17.224 C 142.349 17.224 141.933 17.344 141.629 17.584 C 141.325 17.824 141.173 18.136 141.173 18.52 C 141.173 18.76 141.237 18.968 141.365 19.144 C 141.493 19.32 141.669 19.464 141.893 19.576 C 142.133 19.688 142.405 19.792 142.709 19.888 L 144.797 20.512 C 145.869 20.832 146.693 21.312 147.269 21.952 C 147.861 22.592 148.157 23.376 148.157 24.304 C 148.157 25.088 147.949 25.784 147.533 26.392 C 147.117 26.984 146.541 27.448 145.805 27.784 C 145.069 28.12 144.205 28.288 143.213 28.288 Z M 156.765 28.288 C 155.421 28.288 154.245 27.984 153.237 27.376 C 152.229 26.768 151.445 25.944 150.885 24.904 C 150.325 23.864 150.045 22.712 150.045 21.448 C 150.045 20.136 150.325 18.976 150.885 17.968 C 151.461 16.944 152.237 16.136 153.213 15.544 C 154.205 14.952 155.309 14.656 156.525 14.656 C 157.549 14.656 158.445 14.824 159.213 15.16 C 159.997 15.496 160.661 15.96 161.205 16.552 C 161.749 17.144 162.165 17.824 162.453 18.592 C 162.741 19.344 162.885 20.16 162.885 21.04 C 162.885 21.264 162.869 21.496 162.837 21.736 C 162.821 21.976 162.781 22.184 162.717 22.36 L 152.637 22.36 L 152.637 19.96 L 160.941 19.96 L 159.453 21.088 C 159.597 20.352 159.557 19.696 159.333 19.12 C 159.125 18.544 158.773 18.088 158.277 17.752 C 157.797 17.416 157.213 17.248 156.525 17.248 C 155.869 17.248 155.285 17.416 154.773 17.752 C 154.261 18.072 153.869 18.552 153.597 19.192 C 153.341 19.816 153.245 20.576 153.309 21.472 C 153.245 22.272 153.349 22.984 153.621 23.608 C 153.909 24.216 154.325 24.688 154.869 25.024 C 155.429 25.36 156.069 25.528 156.789 25.528 C 157.509 25.528 158.117 25.376 158.613 25.072 C 159.125 24.768 159.525 24.36 159.813 23.848 L 162.357 25.096 C 162.101 25.72 161.701 26.272 161.157 26.752 C 160.613 27.232 159.965 27.608 159.213 27.88 C 158.477 28.152 157.661 28.288 156.765 28.288 Z" stroke-linecap="round" />
</g>
</svg>